<?xml version="1.0" encoding="UTF-8"?>
<svg xmlns="http://www.w3.org/2000/svg" xmlns:xlink="http://www.w3.org/1999/xlink" viewBox="0 0 26 26" width="26px" height="26px">
<g id="surface49636997">
<path style=" stroke:none;fill-rule:nonzero;fill:rgb(0%,0%,0%);fill-opacity:1;" d="M 6 1 C 3.253906 1 1 3.253906 1 6 L 1 20 C 1 22.746094 3.253906 25 6 25 L 20 25 C 22.746094 25 25 22.746094 25 20 L 25 6 C 25 3.253906 22.746094 1 20 1 Z M 6 3 L 20 3 C 21.65625 3 23 4.34375 23 6 L 23 20 C 23 21.65625 21.65625 23 20 23 L 6 23 C 4.34375 23 3 21.65625 3 20 L 3 6 C 3 4.34375 4.34375 3 6 3 Z M 17.1875 7.0625 C 17.039062 7.085938 16.914062 7.164062 16.8125 7.3125 L 11.90625 14.59375 L 9.59375 12.3125 C 9.394531 12.011719 9.011719 11.988281 8.8125 12.1875 L 7.90625 13.09375 C 7.707031 13.394531 7.707031 13.800781 7.90625 14 L 11.40625 17.5 C 11.605469 17.601562 11.886719 17.8125 12.1875 17.8125 C 12.386719 17.8125 12.707031 17.707031 12.90625 17.40625 L 18.90625 8.59375 C 19.105469 8.292969 18.992188 8.011719 18.59375 7.8125 L 17.59375 7.09375 C 17.492188 7.042969 17.335938 7.039062 17.1875 7.0625 Z M 17.1875 7.0625 "/>
<path style=" stroke:none;fill-rule:nonzero;fill:rgb(20%,20%,20%);fill-opacity:1;" d="M 3.351562 5.890625 C 1.953125 5.890625 0.8125 4.75 0.8125 3.351562 C 0.8125 1.953125 1.953125 0.8125 3.351562 0.8125 C 4.75 0.8125 5.890625 1.953125 5.890625 3.351562 C 5.890625 4.75 4.75 5.890625 3.351562 5.890625 Z M 3.351562 1.203125 C 2.167969 1.203125 1.203125 2.167969 1.203125 3.351562 C 1.203125 4.535156 2.167969 5.5 3.351562 5.5 C 4.535156 5.5 5.5 4.535156 5.5 3.351562 C 5.5 2.167969 4.535156 1.203125 3.351562 1.203125 Z M 4.523438 3.15625 L 3.546875 3.15625 L 3.546875 2.179688 C 3.546875 2.070312 3.460938 1.984375 3.351562 1.984375 C 3.242188 1.984375 3.15625 2.070312 3.15625 2.179688 L 3.15625 3.15625 L 2.179688 3.15625 C 2.070312 3.15625 1.984375 3.242188 1.984375 3.351562 C 1.984375 3.460938 2.070312 3.546875 2.179688 3.546875 L 3.15625 3.546875 L 3.15625 4.523438 C 3.15625 4.632812 3.242188 4.71875 3.351562 4.71875 C 3.460938 4.71875 3.546875 4.632812 3.546875 4.523438 L 3.546875 3.546875 L 4.523438 3.546875 C 4.632812 3.546875 4.71875 3.460938 4.71875 3.351562 C 4.71875 3.242188 4.632812 3.15625 4.523438 3.15625 Z M 4.523438 3.15625 "/>
</g>
</svg>
